<svg width="268" height="1045" viewBox="0 0 268 1045" fill="none" xmlns="http://www.w3.org/2000/svg">
<path fill-rule="evenodd" clip-rule="evenodd" d="M239.983 1044.48L219.99 1022.72C199.997 1000.97 160.011 957.464 140.024 913.962C120.036 870.46 120.048 826.964 150.057 783.477C180.066 739.989 240.072 696.51 260.082 653.019C280.092 609.529 260.104 566.027 215.119 522.518C170.133 479.01 100.15 435.494 65.1635 391.988C30.1773 348.482 30.1885 304.986 60.1975 261.498C90.2064 218.01 150.213 174.531 170.223 131.041C190.233 87.5503 170.245 44.0486 160.252 22.2977L150.258 0.54688L0.269009 0.504648L0.263415 22.2527C0.25782 44.0007 0.246631 87.4968 0.235442 130.993C0.224252 174.489 0.213063 217.985 0.201874 261.481C0.190684 304.977 0.179495 348.473 0.168306 391.969C0.157117 435.466 0.145927 478.962 0.134738 522.458C0.123549 565.954 0.11236 609.45 0.10117 652.946C0.089981 696.442 0.0787918 739.938 0.0676025 783.434C0.0564132 826.93 0.045224 870.426 0.0340347 913.923C0.0228454 957.419 0.0116562 1000.91 0.00606153 1022.66L0.000466894 1044.41L239.983 1044.48Z" fill="#2254E0"/>
</svg>
